<mxfile host="app.diagrams.net" agent="Mozilla/5.0 (Windows NT 10.0; Win64; x64) AppleWebKit/537.36 (KHTML, like Gecko) Chrome/128.0.0.0 Safari/537.36" version="24.7.8">
  <diagram name="Page-1" id="pHN0voa6EhNZTOiaRUYE">
    <mxGraphModel dx="1909" dy="949" grid="1" gridSize="10" guides="1" tooltips="1" connect="1" arrows="1" fold="1" page="1" pageScale="1" pageWidth="827" pageHeight="1169" math="0" shadow="0">
      <root>
        <mxCell id="0" />
        <mxCell id="1" parent="0" />
        <mxCell id="N6PBJkLT1PeszOfAI_Je-1" value="" style="ellipse;html=1;shape=startState;fillColor=#000000;strokeColor=#000000;" parent="1" vertex="1">
          <mxGeometry x="385" y="92" width="30" height="30" as="geometry" />
        </mxCell>
        <mxCell id="N6PBJkLT1PeszOfAI_Je-2" value="" style="edgeStyle=orthogonalEdgeStyle;html=1;verticalAlign=bottom;endArrow=open;endSize=8;strokeColor=#000000;rounded=0;" parent="1" edge="1">
          <mxGeometry relative="1" as="geometry">
            <mxPoint x="400" y="178" as="targetPoint" />
            <mxPoint x="400" y="118" as="sourcePoint" />
          </mxGeometry>
        </mxCell>
        <mxCell id="N6PBJkLT1PeszOfAI_Je-64" style="edgeStyle=orthogonalEdgeStyle;rounded=0;orthogonalLoop=1;jettySize=auto;html=1;exitX=1;exitY=0.5;exitDx=0;exitDy=0;" parent="1" source="N6PBJkLT1PeszOfAI_Je-3" target="N6PBJkLT1PeszOfAI_Je-6" edge="1">
          <mxGeometry relative="1" as="geometry" />
        </mxCell>
        <mxCell id="Tdtsv6pTibad0AgZvZ_h-1" style="edgeStyle=orthogonalEdgeStyle;rounded=0;orthogonalLoop=1;jettySize=auto;html=1;exitX=0.5;exitY=1;exitDx=0;exitDy=0;" parent="1" source="N6PBJkLT1PeszOfAI_Je-3" edge="1">
          <mxGeometry relative="1" as="geometry">
            <mxPoint x="100" y="390" as="targetPoint" />
          </mxGeometry>
        </mxCell>
        <mxCell id="N6PBJkLT1PeszOfAI_Je-3" value="Select Text ?" style="rhombus;whiteSpace=wrap;html=1;fillColor=none;" parent="1" vertex="1">
          <mxGeometry x="45" y="280" width="110" height="55" as="geometry" />
        </mxCell>
        <mxCell id="N6PBJkLT1PeszOfAI_Je-4" value="No" style="edgeStyle=orthogonalEdgeStyle;html=1;align=left;verticalAlign=bottom;endArrow=open;endSize=8;strokeColor=#000000;rounded=0;" parent="1" edge="1">
          <mxGeometry x="-1" relative="1" as="geometry">
            <mxPoint x="346" y="308" as="targetPoint" />
            <mxPoint x="155" y="308" as="sourcePoint" />
          </mxGeometry>
        </mxCell>
        <mxCell id="N6PBJkLT1PeszOfAI_Je-5" value="Yes" style="edgeLabel;html=1;align=center;verticalAlign=middle;resizable=0;points=[];fontSize=10;" parent="N6PBJkLT1PeszOfAI_Je-4" vertex="1" connectable="0">
          <mxGeometry x="-1" y="-13" relative="1" as="geometry">
            <mxPoint x="492" y="254" as="offset" />
          </mxGeometry>
        </mxCell>
        <mxCell id="N6PBJkLT1PeszOfAI_Je-65" style="edgeStyle=orthogonalEdgeStyle;rounded=0;orthogonalLoop=1;jettySize=auto;html=1;exitX=1;exitY=0.5;exitDx=0;exitDy=0;entryX=0.5;entryY=0;entryDx=0;entryDy=0;" parent="1" source="N6PBJkLT1PeszOfAI_Je-6" target="N6PBJkLT1PeszOfAI_Je-12" edge="1">
          <mxGeometry relative="1" as="geometry" />
        </mxCell>
        <mxCell id="N6PBJkLT1PeszOfAI_Je-66" style="edgeStyle=orthogonalEdgeStyle;rounded=0;orthogonalLoop=1;jettySize=auto;html=1;exitX=0.5;exitY=1;exitDx=0;exitDy=0;" parent="1" source="N6PBJkLT1PeszOfAI_Je-6" edge="1">
          <mxGeometry relative="1" as="geometry">
            <mxPoint x="399.66666666666674" y="390" as="targetPoint" />
          </mxGeometry>
        </mxCell>
        <mxCell id="N6PBJkLT1PeszOfAI_Je-6" value="Select Audio ?" style="rhombus;whiteSpace=wrap;html=1;fillColor=none;" parent="1" vertex="1">
          <mxGeometry x="345" y="280" width="110" height="55" as="geometry" />
        </mxCell>
        <mxCell id="N6PBJkLT1PeszOfAI_Je-10" value="Access Text Messaging" style="rounded=1;whiteSpace=wrap;html=1;fillColor=none;" parent="1" vertex="1">
          <mxGeometry x="15" y="390" width="170" height="50" as="geometry" />
        </mxCell>
        <mxCell id="N6PBJkLT1PeszOfAI_Je-11" value="Access Audio Messaging" style="rounded=1;whiteSpace=wrap;html=1;fillColor=none;" parent="1" vertex="1">
          <mxGeometry x="315" y="390" width="170" height="50" as="geometry" />
        </mxCell>
        <mxCell id="N6PBJkLT1PeszOfAI_Je-12" value="Access Video Messaging" style="rounded=1;whiteSpace=wrap;html=1;fillColor=none;" parent="1" vertex="1">
          <mxGeometry x="615" y="390" width="170" height="50" as="geometry" />
        </mxCell>
        <mxCell id="N6PBJkLT1PeszOfAI_Je-13" value="Start Audio Call" style="rounded=1;whiteSpace=wrap;html=1;fillColor=none;" parent="1" vertex="1">
          <mxGeometry x="315" y="470" width="170" height="50" as="geometry" />
        </mxCell>
        <mxCell id="N6PBJkLT1PeszOfAI_Je-14" value="Start Video Call" style="rounded=1;whiteSpace=wrap;html=1;fillColor=none;" parent="1" vertex="1">
          <mxGeometry x="615" y="470" width="170" height="50" as="geometry" />
        </mxCell>
        <mxCell id="N6PBJkLT1PeszOfAI_Je-15" value="Compose Text Message" style="rounded=1;whiteSpace=wrap;html=1;fillColor=none;" parent="1" vertex="1">
          <mxGeometry x="15" y="470" width="170" height="50" as="geometry" />
        </mxCell>
        <mxCell id="N6PBJkLT1PeszOfAI_Je-16" value="Send Text Message" style="rounded=1;whiteSpace=wrap;html=1;fillColor=none;" parent="1" vertex="1">
          <mxGeometry x="15" y="550" width="170" height="50" as="geometry" />
        </mxCell>
        <mxCell id="N6PBJkLT1PeszOfAI_Je-17" value="In Call ?" style="rhombus;whiteSpace=wrap;html=1;fillColor=none;" parent="1" vertex="1">
          <mxGeometry x="647" y="560" width="110" height="55" as="geometry" />
        </mxCell>
        <mxCell id="N6PBJkLT1PeszOfAI_Je-18" value="Send Messages During Call" style="rounded=1;whiteSpace=wrap;html=1;fillColor=none;" parent="1" vertex="1">
          <mxGeometry x="559" y="650" width="95" height="50" as="geometry" />
        </mxCell>
        <mxCell id="N6PBJkLT1PeszOfAI_Je-19" value="End Video Call" style="rounded=1;whiteSpace=wrap;html=1;fillColor=none;" parent="1" vertex="1">
          <mxGeometry x="728" y="650" width="95" height="50" as="geometry" />
        </mxCell>
        <mxCell id="N6PBJkLT1PeszOfAI_Je-20" value="Share Screen" style="rounded=1;whiteSpace=wrap;html=1;fillColor=none;" parent="1" vertex="1">
          <mxGeometry x="557" y="730" width="95" height="50" as="geometry" />
        </mxCell>
        <mxCell id="N6PBJkLT1PeszOfAI_Je-22" value="" style="endArrow=classic;html=1;rounded=0;entryX=0.5;entryY=0;entryDx=0;entryDy=0;" parent="1" edge="1">
          <mxGeometry width="50" height="50" relative="1" as="geometry">
            <mxPoint x="607" y="588" as="sourcePoint" />
            <mxPoint x="607" y="650" as="targetPoint" />
          </mxGeometry>
        </mxCell>
        <mxCell id="N6PBJkLT1PeszOfAI_Je-23" value="" style="endArrow=none;html=1;rounded=0;entryX=0;entryY=0.5;entryDx=0;entryDy=0;" parent="1" target="N6PBJkLT1PeszOfAI_Je-17" edge="1">
          <mxGeometry width="50" height="50" relative="1" as="geometry">
            <mxPoint x="607" y="588" as="sourcePoint" />
            <mxPoint x="727" y="550" as="targetPoint" />
          </mxGeometry>
        </mxCell>
        <mxCell id="N6PBJkLT1PeszOfAI_Je-24" value="" style="endArrow=none;html=1;rounded=0;entryX=0;entryY=0.5;entryDx=0;entryDy=0;" parent="1" edge="1">
          <mxGeometry width="50" height="50" relative="1" as="geometry">
            <mxPoint x="757" y="587" as="sourcePoint" />
            <mxPoint x="792" y="587.36" as="targetPoint" />
          </mxGeometry>
        </mxCell>
        <mxCell id="N6PBJkLT1PeszOfAI_Je-25" value="" style="endArrow=classic;html=1;rounded=0;entryX=0.5;entryY=0;entryDx=0;entryDy=0;" parent="1" edge="1">
          <mxGeometry width="50" height="50" relative="1" as="geometry">
            <mxPoint x="791" y="587" as="sourcePoint" />
            <mxPoint x="791" y="649" as="targetPoint" />
          </mxGeometry>
        </mxCell>
        <mxCell id="N6PBJkLT1PeszOfAI_Je-30" value="In Call ?" style="rhombus;whiteSpace=wrap;html=1;fillColor=none;" parent="1" vertex="1">
          <mxGeometry x="337" y="560" width="110" height="55" as="geometry" />
        </mxCell>
        <mxCell id="N6PBJkLT1PeszOfAI_Je-31" value="Send Messages During Call" style="rounded=1;whiteSpace=wrap;html=1;fillColor=none;" parent="1" vertex="1">
          <mxGeometry x="249" y="650" width="95" height="50" as="geometry" />
        </mxCell>
        <mxCell id="N6PBJkLT1PeszOfAI_Je-32" value="End Audio Call" style="rounded=1;whiteSpace=wrap;html=1;fillColor=none;" parent="1" vertex="1">
          <mxGeometry x="430" y="650" width="95" height="50" as="geometry" />
        </mxCell>
        <mxCell id="N6PBJkLT1PeszOfAI_Je-33" value="Share Screen" style="rounded=1;whiteSpace=wrap;html=1;fillColor=none;" parent="1" vertex="1">
          <mxGeometry x="247" y="730" width="95" height="50" as="geometry" />
        </mxCell>
        <mxCell id="N6PBJkLT1PeszOfAI_Je-35" value="" style="endArrow=classic;html=1;rounded=0;entryX=0.5;entryY=0;entryDx=0;entryDy=0;" parent="1" edge="1">
          <mxGeometry width="50" height="50" relative="1" as="geometry">
            <mxPoint x="297" y="588" as="sourcePoint" />
            <mxPoint x="297" y="650" as="targetPoint" />
          </mxGeometry>
        </mxCell>
        <mxCell id="N6PBJkLT1PeszOfAI_Je-36" value="" style="endArrow=none;html=1;rounded=0;entryX=0;entryY=0.5;entryDx=0;entryDy=0;" parent="1" target="N6PBJkLT1PeszOfAI_Je-30" edge="1">
          <mxGeometry width="50" height="50" relative="1" as="geometry">
            <mxPoint x="297" y="588" as="sourcePoint" />
            <mxPoint x="417" y="550" as="targetPoint" />
          </mxGeometry>
        </mxCell>
        <mxCell id="N6PBJkLT1PeszOfAI_Je-37" value="" style="endArrow=none;html=1;rounded=0;entryX=0;entryY=0.5;entryDx=0;entryDy=0;" parent="1" edge="1">
          <mxGeometry width="50" height="50" relative="1" as="geometry">
            <mxPoint x="447" y="587" as="sourcePoint" />
            <mxPoint x="482" y="587.36" as="targetPoint" />
          </mxGeometry>
        </mxCell>
        <mxCell id="N6PBJkLT1PeszOfAI_Je-38" value="" style="endArrow=classic;html=1;rounded=0;entryX=0.5;entryY=0;entryDx=0;entryDy=0;" parent="1" edge="1">
          <mxGeometry width="50" height="50" relative="1" as="geometry">
            <mxPoint x="481" y="587" as="sourcePoint" />
            <mxPoint x="481" y="649" as="targetPoint" />
          </mxGeometry>
        </mxCell>
        <mxCell id="N6PBJkLT1PeszOfAI_Je-43" value="" style="endArrow=classic;html=1;rounded=0;entryX=0.5;entryY=0;entryDx=0;entryDy=0;exitX=0.482;exitY=1.023;exitDx=0;exitDy=0;exitPerimeter=0;" parent="1" source="N6PBJkLT1PeszOfAI_Je-31" target="N6PBJkLT1PeszOfAI_Je-33" edge="1">
          <mxGeometry width="50" height="50" relative="1" as="geometry">
            <mxPoint x="295" y="710" as="sourcePoint" />
            <mxPoint x="485" y="640" as="targetPoint" />
          </mxGeometry>
        </mxCell>
        <mxCell id="N6PBJkLT1PeszOfAI_Je-44" value="" style="endArrow=classic;html=1;rounded=0;entryX=0.5;entryY=0;entryDx=0;entryDy=0;exitX=0.482;exitY=1.023;exitDx=0;exitDy=0;exitPerimeter=0;" parent="1" edge="1">
          <mxGeometry width="50" height="50" relative="1" as="geometry">
            <mxPoint x="606.76" y="700" as="sourcePoint" />
            <mxPoint x="606.76" y="729" as="targetPoint" />
          </mxGeometry>
        </mxCell>
        <mxCell id="N6PBJkLT1PeszOfAI_Je-45" value="Access Messaging" style="rounded=1;whiteSpace=wrap;html=1;fillColor=none;" parent="1" vertex="1">
          <mxGeometry x="340" y="178" width="120" height="50" as="geometry" />
        </mxCell>
        <mxCell id="N6PBJkLT1PeszOfAI_Je-46" value="" style="endArrow=classic;html=1;rounded=0;" parent="1" edge="1">
          <mxGeometry width="50" height="50" relative="1" as="geometry">
            <mxPoint x="436" y="836" as="sourcePoint" />
            <mxPoint x="436" y="876" as="targetPoint" />
          </mxGeometry>
        </mxCell>
        <mxCell id="N6PBJkLT1PeszOfAI_Je-47" value="" style="endArrow=classic;html=1;rounded=0;" parent="1" edge="1">
          <mxGeometry width="50" height="50" relative="1" as="geometry">
            <mxPoint x="704" y="835" as="sourcePoint" />
            <mxPoint x="704" y="875" as="targetPoint" />
          </mxGeometry>
        </mxCell>
        <mxCell id="N6PBJkLT1PeszOfAI_Je-48" value="" style="endArrow=classic;html=1;rounded=0;exitX=0.5;exitY=1;exitDx=0;exitDy=0;" parent="1" source="N6PBJkLT1PeszOfAI_Je-16" edge="1">
          <mxGeometry width="50" height="50" relative="1" as="geometry">
            <mxPoint x="95" y="640" as="sourcePoint" />
            <mxPoint x="100" y="876" as="targetPoint" />
          </mxGeometry>
        </mxCell>
        <mxCell id="N6PBJkLT1PeszOfAI_Je-49" value="" style="endArrow=none;html=1;rounded=0;" parent="1" edge="1">
          <mxGeometry width="50" height="50" relative="1" as="geometry">
            <mxPoint x="100" y="255" as="sourcePoint" />
            <mxPoint x="400" y="255" as="targetPoint" />
          </mxGeometry>
        </mxCell>
        <mxCell id="N6PBJkLT1PeszOfAI_Je-50" value="" style="endArrow=classic;html=1;rounded=0;" parent="1" edge="1">
          <mxGeometry width="50" height="50" relative="1" as="geometry">
            <mxPoint x="100" y="255" as="sourcePoint" />
            <mxPoint x="100" y="280" as="targetPoint" />
          </mxGeometry>
        </mxCell>
        <mxCell id="N6PBJkLT1PeszOfAI_Je-51" value="" style="endArrow=none;html=1;rounded=0;entryX=0.5;entryY=1;entryDx=0;entryDy=0;" parent="1" target="N6PBJkLT1PeszOfAI_Je-45" edge="1">
          <mxGeometry width="50" height="50" relative="1" as="geometry">
            <mxPoint x="400" y="255" as="sourcePoint" />
            <mxPoint x="395" y="220" as="targetPoint" />
          </mxGeometry>
        </mxCell>
        <mxCell id="N6PBJkLT1PeszOfAI_Je-52" value="" style="endArrow=classic;html=1;rounded=0;entryX=0.5;entryY=0;entryDx=0;entryDy=0;" parent="1" target="N6PBJkLT1PeszOfAI_Je-15" edge="1">
          <mxGeometry width="50" height="50" relative="1" as="geometry">
            <mxPoint x="99.71000000000001" y="440" as="sourcePoint" />
            <mxPoint x="99.71000000000001" y="480" as="targetPoint" />
          </mxGeometry>
        </mxCell>
        <mxCell id="N6PBJkLT1PeszOfAI_Je-53" value="" style="endArrow=classic;html=1;rounded=0;entryX=0.5;entryY=0;entryDx=0;entryDy=0;" parent="1" edge="1">
          <mxGeometry width="50" height="50" relative="1" as="geometry">
            <mxPoint x="99.83000000000001" y="520" as="sourcePoint" />
            <mxPoint x="100.12" y="550" as="targetPoint" />
          </mxGeometry>
        </mxCell>
        <mxCell id="N6PBJkLT1PeszOfAI_Je-54" value="" style="endArrow=classic;html=1;rounded=0;entryX=0.5;entryY=0;entryDx=0;entryDy=0;" parent="1" edge="1">
          <mxGeometry width="50" height="50" relative="1" as="geometry">
            <mxPoint x="394.65999999999997" y="440" as="sourcePoint" />
            <mxPoint x="394.95" y="470" as="targetPoint" />
          </mxGeometry>
        </mxCell>
        <mxCell id="N6PBJkLT1PeszOfAI_Je-55" value="" style="endArrow=classic;html=1;rounded=0;entryX=0.5;entryY=0;entryDx=0;entryDy=0;" parent="1" edge="1">
          <mxGeometry width="50" height="50" relative="1" as="geometry">
            <mxPoint x="391.65999999999997" y="520" as="sourcePoint" />
            <mxPoint x="391.95" y="559" as="targetPoint" />
          </mxGeometry>
        </mxCell>
        <mxCell id="N6PBJkLT1PeszOfAI_Je-56" value="" style="endArrow=classic;html=1;rounded=0;entryX=0.5;entryY=0;entryDx=0;entryDy=0;" parent="1" edge="1">
          <mxGeometry width="50" height="50" relative="1" as="geometry">
            <mxPoint x="702.66" y="521" as="sourcePoint" />
            <mxPoint x="702.95" y="560" as="targetPoint" />
          </mxGeometry>
        </mxCell>
        <mxCell id="N6PBJkLT1PeszOfAI_Je-57" value="" style="endArrow=classic;html=1;rounded=0;entryX=0.5;entryY=0;entryDx=0;entryDy=0;" parent="1" edge="1">
          <mxGeometry width="50" height="50" relative="1" as="geometry">
            <mxPoint x="703" y="440" as="sourcePoint" />
            <mxPoint x="703.29" y="470" as="targetPoint" />
          </mxGeometry>
        </mxCell>
        <mxCell id="N6PBJkLT1PeszOfAI_Je-58" value="Yes" style="edgeLabel;html=1;align=center;verticalAlign=middle;resizable=0;points=[];fontSize=10;" parent="1" vertex="1" connectable="0">
          <mxGeometry x="235" y="410.0000000000001" as="geometry">
            <mxPoint x="98" y="163" as="offset" />
          </mxGeometry>
        </mxCell>
        <mxCell id="N6PBJkLT1PeszOfAI_Je-59" value="&lt;font style=&quot;font-size: 10px;&quot;&gt;No&lt;/font&gt;" style="text;html=1;align=center;verticalAlign=middle;whiteSpace=wrap;rounded=0;fontSize=10;" parent="1" vertex="1">
          <mxGeometry x="436" y="564" width="32" height="20" as="geometry" />
        </mxCell>
        <mxCell id="N6PBJkLT1PeszOfAI_Je-60" value="&lt;font style=&quot;font-size: 10px;&quot;&gt;No&lt;/font&gt;" style="text;html=1;align=center;verticalAlign=middle;whiteSpace=wrap;rounded=0;fontSize=10;" parent="1" vertex="1">
          <mxGeometry x="748" y="567" width="32" height="20" as="geometry" />
        </mxCell>
        <mxCell id="N6PBJkLT1PeszOfAI_Je-61" value="" style="endArrow=none;html=1;rounded=0;" parent="1" edge="1">
          <mxGeometry width="50" height="50" relative="1" as="geometry">
            <mxPoint x="100" y="876" as="sourcePoint" />
            <mxPoint x="705" y="876" as="targetPoint" />
          </mxGeometry>
        </mxCell>
        <mxCell id="N6PBJkLT1PeszOfAI_Je-62" value="" style="endArrow=classic;html=1;rounded=0;" parent="1" edge="1">
          <mxGeometry width="50" height="50" relative="1" as="geometry">
            <mxPoint x="505" y="876" as="sourcePoint" />
            <mxPoint x="505" y="918" as="targetPoint" />
          </mxGeometry>
        </mxCell>
        <mxCell id="N6PBJkLT1PeszOfAI_Je-63" value="" style="ellipse;html=1;shape=endState;fillColor=#000000;strokeColor=#000000;" parent="1" vertex="1">
          <mxGeometry x="490" y="919" width="30" height="30" as="geometry" />
        </mxCell>
        <mxCell id="N6PBJkLT1PeszOfAI_Je-67" value="" style="shape=line;html=1;strokeWidth=6;strokeColor=#000000;" parent="1" vertex="1">
          <mxGeometry x="344" y="828" width="172" height="10" as="geometry" />
        </mxCell>
        <mxCell id="N6PBJkLT1PeszOfAI_Je-70" style="edgeStyle=orthogonalEdgeStyle;rounded=0;orthogonalLoop=1;jettySize=auto;html=1;exitX=1;exitY=0.5;exitDx=0;exitDy=0;" parent="1" source="N6PBJkLT1PeszOfAI_Je-33" edge="1">
          <mxGeometry relative="1" as="geometry">
            <mxPoint x="390" y="830" as="targetPoint" />
          </mxGeometry>
        </mxCell>
        <mxCell id="N6PBJkLT1PeszOfAI_Je-72" style="edgeStyle=orthogonalEdgeStyle;rounded=0;orthogonalLoop=1;jettySize=auto;html=1;exitX=0.5;exitY=1;exitDx=0;exitDy=0;entryX=0.777;entryY=0.239;entryDx=0;entryDy=0;entryPerimeter=0;" parent="1" source="N6PBJkLT1PeszOfAI_Je-32" target="N6PBJkLT1PeszOfAI_Je-67" edge="1">
          <mxGeometry relative="1" as="geometry" />
        </mxCell>
        <mxCell id="N6PBJkLT1PeszOfAI_Je-73" value="" style="shape=line;html=1;strokeWidth=6;strokeColor=#000000;" parent="1" vertex="1">
          <mxGeometry x="615" y="828" width="172" height="10" as="geometry" />
        </mxCell>
        <mxCell id="N6PBJkLT1PeszOfAI_Je-74" style="edgeStyle=orthogonalEdgeStyle;rounded=0;orthogonalLoop=1;jettySize=auto;html=1;exitX=1;exitY=0.5;exitDx=0;exitDy=0;entryX=0.332;entryY=0.327;entryDx=0;entryDy=0;entryPerimeter=0;" parent="1" source="N6PBJkLT1PeszOfAI_Je-20" target="N6PBJkLT1PeszOfAI_Je-73" edge="1">
          <mxGeometry relative="1" as="geometry" />
        </mxCell>
        <mxCell id="N6PBJkLT1PeszOfAI_Je-75" style="edgeStyle=orthogonalEdgeStyle;rounded=0;orthogonalLoop=1;jettySize=auto;html=1;exitX=0.25;exitY=1;exitDx=0;exitDy=0;entryX=0.797;entryY=0.2;entryDx=0;entryDy=0;entryPerimeter=0;" parent="1" source="N6PBJkLT1PeszOfAI_Je-19" target="N6PBJkLT1PeszOfAI_Je-73" edge="1">
          <mxGeometry relative="1" as="geometry" />
        </mxCell>
      </root>
    </mxGraphModel>
  </diagram>
</mxfile>
